<svg width="146" height="24" viewBox="0 0 146 24" fill="#13527E" xmlns="http://www.w3.org/2000/svg">
<path fill-rule="evenodd" clip-rule="evenodd" d="M18.9459 21.689C21.9472 19.5182 23.9 15.987 23.9 11.9998C23.9 8.01258 21.9472 4.48145 18.9459 2.31061C20.3859 1.59943 22.0073 1.1998 23.7221 1.1998C29.6867 1.1998 34.5221 6.03513 34.5221 11.9998C34.5221 17.9645 29.6867 22.7998 23.7221 22.7998C22.0073 22.7998 20.3859 22.4002 18.9459 21.689ZM17.836 22.4021C16.0986 23.3873 14.09 23.9498 11.95 23.9498C5.3502 23.9498 0 18.5996 0 11.9998C0 5.4 5.3502 0.0498047 11.95 0.0498047C14.09 0.0498047 16.0986 0.612317 17.836 1.59755C19.5735 0.612317 21.5821 0.0498047 23.7221 0.0498047C30.3219 0.0498047 35.6721 5.4 35.6721 11.9998C35.6721 18.5996 30.3219 23.9498 23.7221 23.9498C21.5821 23.9498 19.5735 23.3873 17.836 22.4021ZM16.7262 21.689C15.2861 22.4002 13.6647 22.7998 11.95 22.7998C5.98532 22.7998 1.15 17.9645 1.15 11.9998C1.15 6.03513 5.98532 1.1998 11.95 1.1998C13.6647 1.1998 15.2861 1.59942 16.7262 2.31061C13.7248 4.48145 11.7721 8.01258 11.7721 11.9998C11.7721 15.987 13.7248 19.5182 16.7262 21.689ZM17.836 21.0564C16.043 19.8887 14.6183 18.2029 13.7741 16.2114L18.2996 20.737C18.148 20.8474 17.9935 20.9539 17.836 21.0564ZM12.9221 11.9998C12.9221 12.648 12.9792 13.2829 13.0886 13.8996L19.1967 20.0077C19.5532 19.6849 19.8881 19.3386 20.1989 18.9713L12.9262 11.6986C12.9234 11.7987 12.9221 11.8991 12.9221 11.9998ZM20.9001 18.0462L13.0689 10.2149C13.1621 9.65431 13.2985 9.10828 13.4746 8.58038L21.6494 16.7552C21.429 17.2039 21.1783 17.6352 20.9001 18.0462ZM22.1315 15.611L13.9391 7.41851C14.1523 6.964 14.3962 6.52677 14.6683 6.1095L22.5641 14.0054C22.4606 14.5565 22.3153 15.0928 22.1315 15.611ZM22.7362 12.5511C22.7454 12.3685 22.75 12.1847 22.75 11.9998C22.75 11.3775 22.6974 10.7674 22.5963 10.1739L22.4975 10.2726L16.3407 4.11585C15.9894 4.4449 15.6601 4.79715 15.3553 5.17017L22.7362 12.5511ZM22.0694 8.21817L17.2239 3.37268C17.4227 3.2227 17.6269 3.07943 17.836 2.94322C19.7567 4.19407 21.2548 6.03936 22.0694 8.21817ZM53.9769 17.867C54.5515 17.2622 54.9824 16.544 55.2697 15.7124L54.1357 15.2815C53.8031 16.3853 53.2134 17.232 52.3667 17.8217C51.5199 18.3962 50.4918 18.6835 49.2822 18.6835C48.1633 18.6835 47.1805 18.4189 46.3338 17.8897C45.4871 17.3454 44.8293 16.5743 44.3606 15.5764C43.8919 14.5784 43.6575 13.3915 43.6575 12.0156C43.6575 10.6246 43.8919 9.43764 44.3606 8.45484C44.8445 7.45692 45.5097 6.69336 46.3565 6.16416C47.2183 5.61984 48.2087 5.34768 49.3275 5.34768C50.5523 5.34768 51.5426 5.61984 52.2986 6.16416C53.0546 6.69336 53.6065 7.4796 53.9543 8.52288L55.0656 8.00124C54.7934 7.19988 54.3927 6.52704 53.8635 5.98272C53.3343 5.42328 52.6842 5.00748 51.9131 4.73532C51.1571 4.44804 50.2725 4.3044 49.2595 4.3044C47.8987 4.3044 46.7042 4.62192 45.6761 5.25696C44.663 5.87688 43.8768 6.7614 43.3173 7.91052C42.7579 9.05964 42.4782 10.428 42.4782 12.0156C42.4782 13.6032 42.7579 14.9716 43.3173 16.1207C43.8919 17.2698 44.6857 18.1619 45.6987 18.7969C46.7269 19.4168 47.9214 19.7268 49.2822 19.7268C50.265 19.7268 51.1495 19.568 51.9357 19.2505C52.7371 18.933 53.4175 18.4718 53.9769 17.867ZM64.4338 8.63628C63.6325 8.16756 62.7026 7.9332 61.6442 7.9332C60.5858 7.9332 59.6484 8.16756 58.8319 8.63628C58.0305 9.105 57.3955 9.7854 56.9268 10.6775C56.4732 11.5544 56.2464 12.6053 56.2464 13.83C56.2464 15.0547 56.4732 16.1131 56.9268 17.0052C57.3955 17.8822 58.0305 18.555 58.8319 19.0237C59.6484 19.4924 60.5858 19.7268 61.6442 19.7268C62.7026 19.7268 63.6325 19.4924 64.4338 19.0237C65.2503 18.555 65.8854 17.8822 66.339 17.0052C66.8077 16.1131 67.042 15.0547 67.042 13.83C67.042 12.6053 66.8077 11.5544 66.339 10.6775C65.8854 9.7854 65.2503 9.105 64.4338 8.63628ZM59.3989 9.49812C60.0339 9.105 60.7824 8.90844 61.6442 8.90844C62.506 8.90844 63.2545 9.105 63.8895 9.49812C64.5246 9.89124 65.016 10.4582 65.3637 11.1991C65.7266 11.9249 65.908 12.8018 65.908 13.83C65.908 14.843 65.7266 15.72 65.3637 16.4609C65.016 17.2018 64.5246 17.7688 63.8895 18.1619C63.2545 18.555 62.506 18.7516 61.6442 18.7516C60.7824 18.7516 60.0339 18.555 59.3989 18.1619C58.7638 17.7688 58.2649 17.2018 57.902 16.4609C57.5542 15.72 57.3804 14.843 57.3804 13.83C57.3804 12.8018 57.5542 11.9249 57.902 11.1991C58.2649 10.4582 58.7638 9.89124 59.3989 9.49812ZM77.9766 8.16H76.7746L72.6922 18.3206L68.6325 8.16H67.3624L72.1025 19.5H73.2365L77.9766 8.16ZM85.104 9.7476C85.6332 10.2919 85.8978 11.0555 85.8978 12.0383V12.7863L81.4298 13.6712C80.4017 13.8678 79.6003 14.2307 79.0258 14.7599C78.4663 15.274 78.1866 15.9544 78.1866 16.8011C78.1866 17.4361 78.3454 17.9729 78.6629 18.4114C78.9804 18.8347 79.4189 19.1598 79.9783 19.3866C80.5378 19.6134 81.1728 19.7268 81.8834 19.7268C82.4882 19.7268 83.093 19.6285 83.6978 19.432C84.3026 19.2203 84.8318 18.9028 85.2854 18.4794C85.5287 18.2518 85.7272 17.9957 85.8808 17.7111C85.9033 18.1484 85.9922 18.5028 86.1473 18.7742C86.3438 19.0918 86.5933 19.3186 86.8957 19.4546C87.1981 19.5907 87.5232 19.6588 87.871 19.6588C88.2792 19.6588 88.6118 19.5907 88.8689 19.4546L88.9369 18.5474C88.7101 18.6533 88.438 18.7062 88.1204 18.7062C87.3947 18.7062 87.0318 18.3055 87.0318 17.5042V11.8342C87.0318 10.9723 86.8579 10.2541 86.5102 9.67956C86.1624 9.105 85.671 8.67408 85.036 8.3868C84.416 8.0844 83.6903 7.9332 82.8587 7.9332C81.7096 7.9332 80.7419 8.18268 79.9556 8.68164C79.1845 9.16548 78.6326 9.85344 78.3 10.7455L79.2299 11.3352C79.5323 10.4734 79.9934 9.861 80.6134 9.49812C81.2333 9.12012 81.9742 8.93112 82.836 8.93112C83.8188 8.93112 84.5748 9.20328 85.104 9.7476ZM85.8978 13.7388L81.9968 14.5104C81.1048 14.6918 80.4395 14.9564 80.001 15.3042C79.5625 15.652 79.3433 16.1282 79.3433 16.733C79.3433 17.353 79.5776 17.8444 80.0464 18.2072C80.5151 18.555 81.1804 18.7289 82.0422 18.7289C82.4807 18.7289 82.9267 18.6684 83.3803 18.5474C83.8339 18.4265 84.2497 18.2375 84.6277 17.9804C85.0208 17.7083 85.3308 17.3756 85.5576 16.9825C85.7844 16.5743 85.8978 16.0829 85.8978 15.5083V13.7388ZM91.0908 8.16H90.1383V19.5H91.2723V13.1496C91.2723 12.3331 91.431 11.6149 91.7485 10.995C92.0661 10.36 92.4818 9.86856 92.9959 9.5208C93.51 9.15792 94.0543 8.97648 94.6289 8.97648C95.022 8.97648 95.3168 9.00672 95.5134 9.0672C95.71 9.12768 95.8914 9.21084 96.0577 9.31668L96.3072 8.31876C96.156 8.18268 95.9594 8.0844 95.7175 8.02392C95.4756 7.96344 95.2035 7.9332 94.9011 7.9332C94.009 7.9332 93.2454 8.16756 92.6104 8.63628C91.9753 9.105 91.5142 9.74004 91.2269 10.5414L91.0908 8.16ZM97.4396 5.71056C97.6211 5.87688 97.8554 5.96004 98.1427 5.96004C98.43 5.96004 98.6568 5.87688 98.8231 5.71056C99.0045 5.52912 99.0953 5.29476 99.0953 5.00748C99.0953 4.7202 99.0045 4.4934 98.8231 4.32708C98.6568 4.14564 98.43 4.05492 98.1427 4.05492C97.8554 4.05492 97.6211 4.14564 97.4396 4.32708C97.2733 4.4934 97.1901 4.7202 97.1901 5.00748C97.1901 5.29476 97.2733 5.52912 97.4396 5.71056ZM107.749 9.7476C108.278 10.2919 108.542 11.0555 108.542 12.0383V12.7863L104.074 13.6712C103.046 13.8678 102.245 14.2307 101.67 14.7599C101.111 15.274 100.831 15.9544 100.831 16.8011C100.831 17.4361 100.99 17.9729 101.307 18.4114C101.625 18.8347 102.063 19.1598 102.623 19.3866C103.182 19.6134 103.817 19.7268 104.528 19.7268C105.133 19.7268 105.738 19.6285 106.342 19.432C106.947 19.2203 107.476 18.9028 107.93 18.4794C108.173 18.2518 108.372 17.9957 108.525 17.7111C108.548 18.1484 108.637 18.5028 108.792 18.7742C108.988 19.0918 109.238 19.3186 109.54 19.4546C109.843 19.5907 110.168 19.6588 110.516 19.6588C110.924 19.6588 111.256 19.5907 111.513 19.4546L111.581 18.5474C111.355 18.6533 111.083 18.7062 110.765 18.7062C110.039 18.7062 109.676 18.3055 109.676 17.5042V11.8342C109.676 10.9723 109.502 10.2541 109.155 9.67956C108.807 9.105 108.316 8.67408 107.681 8.3868C107.061 8.0844 106.335 7.9332 105.503 7.9332C104.354 7.9332 103.386 8.18268 102.6 8.68164C101.829 9.16548 101.277 9.85344 100.945 10.7455L101.874 11.3352C102.177 10.4734 102.638 9.861 103.258 9.49812C103.878 9.12012 104.619 8.93112 105.481 8.93112C106.463 8.93112 107.219 9.20328 107.749 9.7476ZM108.542 13.7388L104.641 14.5104C103.749 14.6918 103.084 14.9564 102.646 15.3042C102.207 15.652 101.988 16.1282 101.988 16.733C101.988 17.353 102.222 17.8444 102.691 18.2072C103.16 18.555 103.825 18.7289 104.687 18.7289C105.125 18.7289 105.571 18.6684 106.025 18.5474C106.478 18.4265 106.894 18.2375 107.272 17.9804C107.665 17.7083 107.975 17.3756 108.202 16.9825C108.429 16.5743 108.542 16.0829 108.542 15.5083V13.7388ZM98.7097 19.5V8.16H97.5757V19.5H98.7097ZM113.803 8.16H112.783V19.5H113.917V13.1042C113.917 12.2122 114.106 11.4562 114.484 10.8362C114.877 10.2163 115.376 9.7476 115.981 9.43008C116.601 9.09744 117.266 8.93112 117.977 8.93112C118.959 8.93112 119.753 9.2184 120.358 9.79296C120.978 10.3675 121.288 11.2747 121.288 12.5146V19.5H122.422V12.1517C122.422 11.2142 122.233 10.4356 121.855 9.81564C121.492 9.19572 120.985 8.727 120.335 8.40948C119.685 8.09196 118.937 7.9332 118.09 7.9332C117.41 7.9332 116.774 8.0466 116.185 8.2734C115.595 8.5002 115.089 8.83284 114.665 9.27132C114.339 9.59715 114.076 9.98119 113.876 10.4234L113.803 8.16ZM131.849 8.29608C131.244 8.05416 130.556 7.9332 129.785 7.9332C128.757 7.9332 127.835 8.16756 127.018 8.63628C126.217 9.105 125.582 9.7854 125.113 10.6775C124.659 11.5544 124.433 12.6053 124.433 13.83C124.433 15.0547 124.659 16.1131 125.113 17.0052C125.567 17.8822 126.194 18.555 126.995 19.0237C127.812 19.4924 128.734 19.7268 129.762 19.7268C130.549 19.7268 131.259 19.5983 131.894 19.3412C132.529 19.0691 133.066 18.6835 133.505 18.1846C133.958 17.6856 134.283 17.0884 134.48 16.3928L133.437 16.03C133.331 16.5894 133.104 17.0732 132.756 17.4815C132.423 17.8897 131.993 18.1997 131.463 18.4114C130.949 18.623 130.375 18.7289 129.74 18.7289C128.893 18.7289 128.16 18.5399 127.54 18.1619C126.92 17.7688 126.436 17.2018 126.088 16.4609C125.74 15.72 125.567 14.843 125.567 13.83C125.567 12.8018 125.74 11.9249 126.088 11.1991C126.436 10.4582 126.927 9.8988 127.562 9.5208C128.197 9.12768 128.931 8.93112 129.762 8.93112C130.685 8.93112 131.441 9.15792 132.03 9.61152C132.635 10.05 133.059 10.6775 133.3 11.494L134.366 10.995C134.14 10.3448 133.814 9.79296 133.391 9.33936C132.968 8.88576 132.454 8.538 131.849 8.29608ZM138.221 19.0237C139.038 19.4924 139.968 19.7268 141.011 19.7268C141.722 19.7268 142.372 19.621 142.961 19.4093C143.551 19.1976 144.073 18.9028 144.526 18.5248C144.98 18.1316 145.343 17.6629 145.615 17.1186L144.708 16.597C144.36 17.2622 143.869 17.7839 143.234 18.1619C142.614 18.5399 141.865 18.7289 140.988 18.7289C140.142 18.7289 139.393 18.5399 138.743 18.1619C138.108 17.7688 137.609 17.2018 137.246 16.4609C136.924 15.7759 136.752 14.9745 136.727 14.0568H145.728C145.743 13.951 145.751 13.8376 145.751 13.7166C145.766 13.5805 145.774 13.4444 145.774 13.3084C145.774 12.25 145.577 11.3201 145.184 10.5187C144.791 9.70224 144.231 9.0672 143.506 8.6136C142.78 8.16 141.903 7.9332 140.875 7.9332C139.862 7.9332 138.962 8.16756 138.176 8.63628C137.39 9.105 136.762 9.7854 136.293 10.6775C135.84 11.5544 135.613 12.6053 135.613 13.83C135.613 15.0547 135.84 16.1131 136.293 17.0052C136.762 17.8822 137.405 18.555 138.221 19.0237ZM136.762 13.0362C136.83 12.3428 136.991 11.7304 137.246 11.1991C137.594 10.4582 138.078 9.8988 138.698 9.5208C139.317 9.12768 140.036 8.93112 140.852 8.93112C142.032 8.93112 142.954 9.31668 143.619 10.0878C144.272 10.8273 144.618 11.8101 144.659 13.0362H136.762Z" fill="#13527E"/>
</svg>
