<svg width="49" height="48" viewBox="0 0 49 48" fill="none" xmlns="http://www.w3.org/2000/svg">
<path d="M26.4993 21.9988L7.49928 40.9988M28.5361 7.07577C30.9722 8.69218 33.3136 10.5978 35.5016 12.7858C37.7084 14.9927 39.6281 17.3556 41.2534 19.8143M19.0092 15.7911L13.2595 13.8745C12.5973 13.6538 11.868 13.7943 11.3351 14.2451L5.62081 19.0803C4.45096 20.0702 4.78331 21.954 6.22128 22.4838L11.6357 24.4786M23.8614 36.7039L25.8561 42.1183C26.3859 43.5562 28.2697 43.8886 29.2596 42.7188L34.0948 37.0044C34.5457 36.4716 34.6861 35.7423 34.4654 35.0801L32.5488 29.3304M39.1964 4.54029L29.3835 6.17578C28.3239 6.35238 27.352 6.8732 26.6181 7.65767L13.392 21.796C9.96369 25.4607 10.0591 31.1839 13.6076 34.7324C17.1561 38.2809 22.8792 38.3762 26.544 34.9479L40.6822 21.7218C41.4667 20.9879 41.9875 20.016 42.1641 18.9564L43.7996 9.14346C44.2508 6.43618 41.9037 4.08908 39.1964 4.54029Z" stroke="#32DE8A" stroke-width="3" stroke-linecap="round" stroke-linejoin="round"/>
</svg>
