<svg width="36" height="25" viewBox="0 0 36 25" fill="none" xmlns="http://www.w3.org/2000/svg">
<path fill-rule="evenodd" clip-rule="evenodd" d="M23.9 12.4998C23.9 16.487 21.9472 20.0182 18.9459 22.189C20.3859 22.9002 22.0073 23.2998 23.7221 23.2998C29.6867 23.2998 34.5221 18.4645 34.5221 12.4998C34.5221 6.53513 29.6867 1.6998 23.7221 1.6998C22.0073 1.6998 20.3859 2.09943 18.9459 2.81061C21.9472 4.98145 23.9 8.51258 23.9 12.4998ZM11.95 24.4498C14.09 24.4498 16.0986 23.8873 17.836 22.9021C19.5735 23.8873 21.5821 24.4498 23.7221 24.4498C30.3219 24.4498 35.6721 19.0996 35.6721 12.4998C35.6721 5.9 30.3219 0.549805 23.7221 0.549805C21.5821 0.549805 19.5735 1.11232 17.836 2.09755C16.0986 1.11232 14.09 0.549805 11.95 0.549805C5.3502 0.549805 0 5.9 0 12.4998C0 19.0996 5.3502 24.4498 11.95 24.4498ZM11.95 23.2998C13.6647 23.2998 15.2861 22.9002 16.7262 22.189C13.7248 20.0182 11.7721 16.487 11.7721 12.4998C11.7721 8.51258 13.7248 4.98145 16.7262 2.81061C15.2861 2.09942 13.6647 1.6998 11.95 1.6998C5.98532 1.6998 1.15 6.53513 1.15 12.4998C1.15 18.4645 5.98532 23.2998 11.95 23.2998ZM13.7741 16.7114C14.6183 18.7029 16.043 20.3887 17.836 21.5564C17.9935 21.4539 18.148 21.3474 18.2996 21.237L13.7741 16.7114ZM13.0886 14.3996C12.9792 13.7829 12.9221 13.148 12.9221 12.4998C12.9221 12.3991 12.9234 12.2987 12.9262 12.1986L20.1989 19.4713C19.8881 19.8386 19.5532 20.1849 19.1967 20.5077L13.0886 14.3996ZM13.0689 10.7149L20.9001 18.5462C21.1783 18.1352 21.429 17.7039 21.6494 17.2552L13.4746 9.08038C13.2985 9.60828 13.1621 10.1543 13.0689 10.7149ZM13.9391 7.91851L22.1315 16.111C22.3153 15.5928 22.4606 15.0565 22.5641 14.5054L14.6683 6.6095C14.3962 7.02677 14.1523 7.464 13.9391 7.91851ZM22.75 12.4998C22.75 12.6847 22.7454 12.8685 22.7362 13.0511L15.3553 5.67017C15.6601 5.29715 15.9894 4.9449 16.3407 4.61585L22.4975 10.7726L22.5963 10.6739C22.6974 11.2674 22.75 11.8775 22.75 12.4998ZM17.2239 3.87268L22.0694 8.71817C21.2548 6.53936 19.7567 4.69407 17.836 3.44322C17.6269 3.57943 17.4227 3.7227 17.2239 3.87268Z" fill="url(#paint0_linear_733_12940)"/>
<defs>
<linearGradient id="paint0_linear_733_12940" x1="0" y1="0.549805" x2="22.1036" y2="33.5406" gradientUnits="userSpaceOnUse">
<stop stop-color="#458ABB"/>
<stop offset="0.914433" stop-color="#13527E"/>
</linearGradient>
</defs>
</svg>
